<svg width="18" height="18" viewBox="0 0 18 18" fill="none" xmlns="http://www.w3.org/2000/svg">
<mask id="path-1-inside-1_5714_23771" fill="white">
<path d="M3.3073 5.3999H16.7998C17.4609 5.3999 17.9999 5.93886 17.9999 6.59995V7.19999C17.9999 7.61104 17.7915 7.97472 17.4752 8.19101L15.2164 16.6619C15.0049 17.4564 14.3007 18.0002 13.4779 18.0002H4.52223C3.69951 18.0002 2.99498 17.4564 2.78381 16.6619L0.524689 8.19101C0.208411 7.97472 0 7.61104 0 7.19999V6.59995C0 5.93886 0.538956 5.3999 1.20005 5.3999H3.30727"/>
</mask>
<path d="M17.4752 8.19101L16.9672 7.44811L16.6916 7.63656L16.6056 7.95912L17.4752 8.19101ZM15.2164 16.6619L14.3468 16.43L14.3466 16.4304L15.2164 16.6619ZM2.78381 16.6619L3.65361 16.4307L3.65342 16.43L2.78381 16.6619ZM0.524689 8.19101L1.39429 7.95909L1.30827 7.63655L1.03273 7.44811L0.524689 8.19101ZM3.3073 6.2999H16.7998V4.4999H3.3073V6.2999ZM16.7998 6.2999C16.9639 6.2999 17.0999 6.43591 17.0999 6.59995H18.8999C18.8999 5.4418 17.958 4.4999 16.7998 4.4999V6.2999ZM17.0999 6.59995V7.19999H18.8999V6.59995H17.0999ZM17.0999 7.19999C17.0999 7.29973 17.0501 7.39141 16.9672 7.44811L17.9832 8.9339C18.5329 8.55802 18.8999 7.92234 18.8999 7.19999H17.0999ZM16.6056 7.95912L14.3468 16.43L16.086 16.8938L18.3448 8.4229L16.6056 7.95912ZM14.3466 16.4304C14.2396 16.8324 13.891 17.1002 13.4779 17.1002V18.9002C14.7103 18.9002 15.7702 18.0803 16.0861 16.8934L14.3466 16.4304ZM13.4779 17.1002H4.52223V18.9002H13.4779V17.1002ZM4.52223 17.1002C4.10895 17.1002 3.76033 16.8322 3.65361 16.4307L1.91401 16.8931C2.22962 18.0805 3.29007 18.9002 4.52223 18.9002V17.1002ZM3.65342 16.43L1.39429 7.95909L-0.344917 8.42293L1.91421 16.8938L3.65342 16.43ZM1.03273 7.44811C0.949818 7.39141 0.9 7.29973 0.9 7.19999H-0.9C-0.9 7.92234 -0.532996 8.55802 0.0166488 8.9339L1.03273 7.44811ZM0.9 7.19999V6.59995H-0.9V7.19999H0.9ZM0.9 6.59995C0.9 6.43591 1.03601 6.2999 1.20005 6.2999V4.4999C0.0419 4.4999 -0.9 5.4418 -0.9 6.59995H0.9ZM1.20005 6.2999H3.30727V4.4999H1.20005V6.2999Z" fill="#231F20" mask="url(#path-1-inside-1_5714_23771)"/>
<path d="M3.30713 5.39973L7.32655 0.231616C7.52981 -0.0296739 7.90652 -0.0770453 8.16811 0.12618C8.4294 0.329435 8.47677 0.706473 8.27354 0.967733L4.8265 5.39973H13.1734L9.72668 0.967733C9.52342 0.706443 9.57053 0.329435 9.83211 0.12618C10.0934 -0.0770746 10.4704 -0.0296739 10.6737 0.231616L14.6931 5.39976" fill="#231F20"/>
</svg>
