<svg width="24" height="24" viewBox="0 0 24 24" fill="none" xmlns="http://www.w3.org/2000/svg">
<circle cx="12" cy="12" r="12" fill="#FFDCEA"/>
<path fill-rule="evenodd" clip-rule="evenodd" d="M4.32812 7.32812V15.4391H10.6088L12.0203 7.32812H4.32812Z" fill="#F381A5"/>
<path fill-rule="evenodd" clip-rule="evenodd" d="M11.8656 7.32812L10.4541 15.4391H18.1278L20.7533 11.3836L18.1278 7.32812H11.8656Z" fill="#F381A5"/>
<path d="M11.993 8.80681C12.0529 8.81603 12.0942 8.86198 12.091 8.91265L12.0893 8.9254L10.9355 14.4094C10.9239 14.4649 10.8618 14.5018 10.7969 14.4918C10.7371 14.4826 10.6957 14.4367 10.6989 14.386L10.7006 14.3732L11.8544 8.88922C11.8652 8.83798 11.9189 8.8026 11.9781 8.80532L11.993 8.80681Z" fill="#B22254"/>
<path d="M11.9997 8.58787L12.0146 8.58935L12.0262 8.59082C12.1918 8.61634 12.32 8.75589 12.3077 8.94244L12.3033 8.97069L11.1495 14.4547C11.1125 14.6309 10.9373 14.7351 10.7635 14.7083C10.5979 14.6828 10.4697 14.5432 10.482 14.3567L10.4864 14.3284L11.6402 8.84442C11.6743 8.68211 11.8268 8.57961 11.9997 8.58787Z" fill="#B22254"/>
<path fill-rule="evenodd" clip-rule="evenodd" d="M7.00209 13.1191C6.98401 13.1346 6.95946 13.1424 6.92846 13.1424H6.59134C6.56292 13.1424 6.54161 13.132 6.5274 13.1114C6.51319 13.0907 6.51254 13.0675 6.52546 13.0416L7.73059 10.4337C7.74351 10.4053 7.76547 10.3911 7.79647 10.3911H7.83522C7.85589 10.3911 7.87074 10.395 7.87978 10.4027C7.88882 10.4105 7.89593 10.4208 7.9011 10.4337L9.0946 13.0416C9.10752 13.0675 9.10687 13.0907 9.09267 13.1114C9.07846 13.132 9.05715 13.1424 9.02873 13.1424H8.6916C8.66318 13.1424 8.64058 13.1366 8.62379 13.1249C8.607 13.1133 8.59214 13.0933 8.57923 13.0649L8.38935 12.6464H7.23072L7.04084 13.0649C7.03309 13.0855 7.02017 13.1036 7.00209 13.1191ZM7.42053 12.2163H8.19941L7.81191 11.3638H7.80028L7.42053 12.2163Z" fill="white"/>
<path d="M15.683 13.1036C15.7036 13.1036 15.7211 13.0965 15.7353 13.0823C15.7495 13.0681 15.7566 13.0507 15.7566 13.03V12.7084C15.7566 12.6877 15.7495 12.6703 15.7353 12.6561C15.7211 12.6419 15.7036 12.6348 15.683 12.6348H14.6948V12.627L15.7992 10.5771C15.8173 10.5461 15.8276 10.5229 15.8302 10.5074C15.8328 10.4919 15.8341 10.4777 15.8341 10.4647C15.8341 10.4441 15.827 10.4266 15.8128 10.4124C15.7986 10.3982 15.7811 10.3911 15.7605 10.3911H14.1407C14.12 10.3911 14.1026 10.3982 14.0884 10.4124C14.0742 10.4266 14.0671 10.4441 14.0671 10.4647V10.7864C14.0671 10.807 14.0742 10.8245 14.0884 10.8387C14.1026 10.8529 14.12 10.86 14.1407 10.86H15.1095V10.8755L13.9818 12.9099C13.9689 12.9357 13.9612 12.957 13.9586 12.9738C13.956 12.9906 13.9547 13.0093 13.9547 13.03C13.9547 13.0507 13.9618 13.0681 13.976 13.0823C13.9902 13.0965 14.0077 13.1036 14.0283 13.1036H15.683Z" fill="white"/>
<path fill-rule="evenodd" clip-rule="evenodd" d="M18.6109 11.2553C18.6109 11.484 18.4257 11.6693 18.1969 11.6693C17.9684 11.6693 17.7831 11.484 17.7831 11.2553C17.7831 11.0266 17.9684 10.8413 18.1969 10.8413C18.4257 10.8413 18.6109 11.0266 18.6109 11.2553Z" fill="white"/>
<path fill-rule="evenodd" clip-rule="evenodd" d="M18.4227 7.51325C18.1975 7.19158 17.8296 7 17.4369 7H5.20329C4.53873 7 4 7.53873 4 8.20329V14.7667C4 15.4313 4.53873 15.97 5.20329 15.97H17.4646C17.8359 15.97 18.1864 15.7986 18.4144 15.5055L20.8179 12.4152C21.1421 11.9984 21.1567 11.4189 20.8539 10.9864L18.4227 7.51325ZM5.2032 7.65625H17.4368C17.6153 7.65625 17.7826 7.74333 17.8849 7.88955L20.3161 11.3627C20.4537 11.5593 20.4471 11.8227 20.2998 12.0121L17.8962 15.1024C17.7926 15.2356 17.6332 15.3136 17.4645 15.3136H5.2032C4.90113 15.3136 4.65625 15.0687 4.65625 14.7666V8.2032C4.65625 7.90113 4.90113 7.65625 5.2032 7.65625Z" fill="#B22254"/>
</svg>
