<svg width="24" height="24" viewBox="0 0 24 24" fill="none" xmlns="http://www.w3.org/2000/svg">
<circle cx="12" cy="12" r="12" fill="#FFDCEA"/>
<path fill-rule="evenodd" clip-rule="evenodd" d="M11.7264 9.52162C11.7264 9.52162 13.6172 3.60114 15.6542 5.43277C17.6911 7.2644 11.7264 9.52162 11.7264 9.52162Z" stroke="#B22254"/>
<path fill-rule="evenodd" clip-rule="evenodd" d="M12.0242 9.52162C12.0242 9.52162 10.1334 3.60114 8.09643 5.43277C6.05948 7.2644 12.0242 9.52162 12.0242 9.52162Z" stroke="#B22254"/>
<path fill-rule="evenodd" clip-rule="evenodd" d="M16.7779 18.8598H7.30305C7.13567 18.8598 7 18.7355 7 18.5821V9.90072C7 9.74735 7.13569 9.62305 7.30305 9.62305H16.7779C16.9453 9.62305 17.081 9.74738 17.081 9.90072V18.5821C17.081 18.7355 16.9453 18.8598 16.7779 18.8598Z" fill="#F381A5"/>
<path d="M16.7779 18.8598H7.30305C7.13567 18.8598 7 18.7355 7 18.5821V9.90072C7 9.74735 7.13569 9.62305 7.30305 9.62305H16.7779C16.9453 9.62305 17.081 9.74738 17.081 9.90072V18.5821C17.081 18.7355 16.9453 18.8598 16.7779 18.8598" stroke="#B22254"/>
</svg>
