<svg width="24" height="24" viewBox="0 0 24 24" fill="none" xmlns="http://www.w3.org/2000/svg">
<circle cx="12" cy="12" r="12" fill="#FFDCEA"/>
<mask id="mask0_5735_30334" style="mask-type:luminance" maskUnits="userSpaceOnUse" x="4" y="7" width="16" height="11">
<path fill-rule="evenodd" clip-rule="evenodd" d="M4.8125 7.04297H19.7837V17.6252H4.8125V7.04297Z" fill="white"/>
</mask>
<g mask="url(#mask0_5735_30334)">
<path fill-rule="evenodd" clip-rule="evenodd" d="M18.6474 17.6253H5.94891C5.32133 17.6253 4.8125 17.1165 4.8125 16.4889V8.17938C4.8125 7.5518 5.32133 7.04297 5.94891 7.04297H18.6474C19.275 7.04297 19.7838 7.5518 19.7838 8.17938V16.4889C19.7838 17.1165 19.275 17.6253 18.6474 17.6253Z" fill="#F381A5"/>
</g>
<path d="M18.0983 6.16896H5.39985V6.58104H18.0983V6.16896ZM5.39985 6.16896C4.58215 6.16896 3.91896 6.83167 3.91896 7.64938H4.33104C4.33104 7.05942 4.80958 6.58104 5.39985 6.58104V6.16896ZM3.91896 7.64938V15.9589H4.33104V7.64938H3.91896ZM3.91896 15.9589C3.91896 16.7768 4.58208 17.4396 5.39985 17.4396V17.0275C4.80957 17.0275 4.33104 16.5491 4.33104 15.9589H3.91896ZM5.39985 17.4396H18.0983V17.0275H5.39985V17.4396ZM18.0983 17.4396C18.9161 17.4396 19.5787 16.7768 19.5787 15.9589H19.1667C19.1667 16.5493 18.6884 17.0275 18.0983 17.0275V17.4396ZM19.5787 15.9589V7.64938H19.1667V15.9589H19.5787ZM19.5787 7.64938C19.5787 6.83168 18.916 6.16896 18.0983 6.16896V6.58104C18.6884 6.58104 19.1667 7.05927 19.1667 7.64938H19.5787Z" fill="#B22254"/>
<line x1="4.125" y1="10.812" x2="19.342" y2="10.812" stroke="#B22254" stroke-width="0.412085"/>
<path fill-rule="evenodd" clip-rule="evenodd" d="M15.6797 11.015C15.6797 11.015 16.7959 7.5199 17.9984 8.60118C19.2009 9.68247 15.6797 11.015 15.6797 11.015Z" stroke="#B22254" stroke-width="0.494502"/>
<path fill-rule="evenodd" clip-rule="evenodd" d="M15.8564 11.015C15.8564 11.015 14.7402 7.5199 13.5377 8.60118C12.3352 9.68247 15.8564 11.015 15.8564 11.015Z" stroke="#B22254" stroke-width="0.494502"/>
<path fill-rule="evenodd" clip-rule="evenodd" d="M15.8564 10.7291C15.8564 10.7291 14.7402 14.2242 13.5377 13.143C12.3352 12.0617 15.8564 10.7291 15.8564 10.7291Z" stroke="#B22254" stroke-width="0.494502"/>
<path fill-rule="evenodd" clip-rule="evenodd" d="M15.6797 10.7291C15.6797 10.7291 16.7959 14.2242 17.9984 13.143C19.2009 12.0617 15.6797 10.7291 15.6797 10.7291Z" stroke="#B22254" stroke-width="0.494502"/>
<line x1="15.6562" y1="6.375" x2="15.6562" y2="17.3942" stroke="#B22254" stroke-width="0.412085"/>
</svg>
