<svg width="24" height="24" viewBox="0 0 24 24" fill="none" xmlns="http://www.w3.org/2000/svg">
<circle cx="12" cy="12" r="12" fill="#FFDCEA"/>
<path fill-rule="evenodd" clip-rule="evenodd" d="M16.0581 6L8.24451 18.1488L8.48756 18.3066L16.3012 6.15787" fill="#B22254"/>
<path d="M16.0581 6L8.24451 18.1488L8.48756 18.3066L16.3012 6.15787" stroke="#B22254" stroke-width="0.5"/>
<path fill-rule="evenodd" clip-rule="evenodd" d="M9.63958 10.9752C8.99188 10.3821 8.33284 9.80559 7.70578 9.19624C7.20144 8.70606 7.04949 8.07252 7.16603 7.39097C7.25129 6.89146 7.56895 6.55812 8.05781 6.42029C8.57865 6.27347 9.03073 6.41649 9.40684 6.80096C9.49416 6.89008 9.56635 6.99371 9.62617 7.06695C9.80391 6.90286 9.96446 6.70838 10.1656 6.57608C10.9322 6.07036 11.9718 6.50043 12.1283 7.40064C12.2465 8.08047 12.0794 8.70848 11.5803 9.20487C11.1973 9.58555 10.7858 9.93686 10.3866 10.2999C10.1419 10.5227 9.89605 10.7438 9.63958 10.9752Z" fill="#F381A5"/>
<path fill-rule="evenodd" clip-rule="evenodd" d="M9.65542 10.9888L9.75271 10.8814C9.1033 10.2869 8.44529 9.71103 7.822 9.10513C7.45174 8.7438 7.29051 8.31269 7.28913 7.82666C7.28913 7.69747 7.30082 7.56447 7.3242 7.42906C7.36305 7.20349 7.45106 7.02386 7.58204 6.88257C7.71302 6.74164 7.88939 6.63697 8.11285 6.57375C8.23627 6.53886 8.35281 6.52228 8.4642 6.52228C8.78151 6.52332 9.05998 6.65286 9.3192 6.91608C9.39586 6.99415 9.46531 7.0926 9.53028 7.17274L9.62723 7.29123L9.73999 7.18725C9.92633 7.0135 10.0834 6.82627 10.2605 6.71089C10.4599 6.57928 10.6778 6.51952 10.892 6.51952C11.1523 6.51952 11.4067 6.60899 11.6064 6.76893C11.8062 6.92886 11.9523 7.15582 12.0018 7.43942C12.0245 7.57 12.0358 7.69781 12.0358 7.82217C12.0344 8.30958 11.8653 8.74449 11.494 9.11515C11.1165 9.49064 10.7071 9.84057 10.3052 10.206C10.0614 10.4282 9.81528 10.6489 9.55882 10.8807L9.65542 10.9888L9.75271 10.8814L9.65542 10.9888L9.75203 11.0966C10.0081 10.8655 10.2543 10.6444 10.4994 10.4213C10.8965 10.0599 11.3094 9.70723 11.6972 9.32172C12.1214 8.90167 12.326 8.37902 12.3249 7.82217C12.3249 7.67985 12.3119 7.53545 12.2864 7.38933C12.2249 7.03457 12.0382 6.74198 11.7862 6.54128C11.5346 6.34024 11.2179 6.229 10.892 6.229C10.6239 6.229 10.3492 6.30466 10.1017 6.46805C9.87682 6.61762 9.71249 6.81901 9.54403 6.97343L9.64201 7.08051L9.75375 6.98828C9.69908 6.92195 9.62345 6.8128 9.52581 6.71262C9.22741 6.40621 8.8654 6.23108 8.4642 6.23177C8.32462 6.23177 8.18092 6.25284 8.03481 6.29395C7.76906 6.36856 7.54216 6.49948 7.37061 6.68464C7.19872 6.8691 7.08561 7.10607 7.0392 7.38001C7.01307 7.53062 7.00001 7.6795 7.00001 7.82666C6.99863 8.37867 7.1939 8.90098 7.62089 9.31412C8.25174 9.92693 8.91181 10.5045 9.55813 11.0962L9.65473 11.1847L9.75203 11.0966L9.65542 10.9888Z" fill="#B22254"/>
<path d="M9.65542 10.9888L9.75271 10.8814C9.1033 10.2869 8.44529 9.71103 7.822 9.10513C7.45174 8.7438 7.29051 8.31269 7.28913 7.82666C7.28913 7.69747 7.30082 7.56447 7.3242 7.42906C7.36305 7.20349 7.45106 7.02386 7.58204 6.88257C7.71302 6.74164 7.88939 6.63697 8.11285 6.57375C8.23627 6.53886 8.35281 6.52228 8.4642 6.52228C8.78151 6.52332 9.05998 6.65286 9.3192 6.91608C9.39586 6.99415 9.46531 7.0926 9.53028 7.17274L9.62723 7.29123L9.73999 7.18725C9.92633 7.0135 10.0834 6.82627 10.2605 6.71089C10.4599 6.57928 10.6778 6.51952 10.892 6.51952C11.1523 6.51952 11.4067 6.60899 11.6064 6.76893C11.8062 6.92886 11.9523 7.15582 12.0018 7.43942C12.0245 7.57 12.0358 7.69781 12.0358 7.82217C12.0344 8.30958 11.8653 8.74449 11.494 9.11515C11.1165 9.49064 10.7071 9.84057 10.3052 10.206C10.0614 10.4282 9.81528 10.6489 9.55882 10.8807L9.65542 10.9888L9.75271 10.8814L9.65542 10.9888L9.75203 11.0966C10.0081 10.8655 10.2543 10.6444 10.4994 10.4213C10.8965 10.0599 11.3094 9.70723 11.6972 9.32172C12.1214 8.90167 12.326 8.37902 12.3249 7.82217C12.3249 7.67985 12.3119 7.53545 12.2864 7.38933C12.2249 7.03457 12.0382 6.74198 11.7862 6.54128C11.5346 6.34024 11.2179 6.229 10.892 6.229C10.6239 6.229 10.3492 6.30466 10.1017 6.46805C9.87682 6.61762 9.71249 6.81901 9.54403 6.97343L9.64201 7.08051L9.75375 6.98828C9.69908 6.92195 9.62345 6.8128 9.52581 6.71262C9.22741 6.40621 8.8654 6.23108 8.4642 6.23177C8.32462 6.23177 8.18092 6.25284 8.03481 6.29395C7.76906 6.36856 7.54216 6.49948 7.37061 6.68464C7.19872 6.8691 7.08561 7.10607 7.0392 7.38001C7.01307 7.53062 7.00001 7.6795 7.00001 7.82666C6.99863 8.37867 7.1939 8.90098 7.62089 9.31412C8.25174 9.92693 8.91181 10.5045 9.55813 11.0962L9.65473 11.1847L9.75203 11.0966L9.65542 10.9888Z" stroke="#B22254" stroke-width="0.5"/>
<path fill-rule="evenodd" clip-rule="evenodd" d="M15.0981 18.8006C14.4504 18.2075 13.7917 17.631 13.1643 17.0213C12.6596 16.5314 12.508 15.8979 12.6246 15.2164C12.7098 14.7168 13.0278 14.3835 13.5167 14.2453C14.0372 14.0989 14.4893 14.2419 14.8654 14.6263C14.9527 14.7151 15.0249 14.8191 15.0847 14.8923C15.2621 14.7279 15.423 14.5338 15.6241 14.4011C16.3908 13.8957 17.4304 14.3255 17.5868 15.226C17.7051 15.9058 17.538 16.5339 17.0384 17.0303C16.6558 17.4106 16.2446 17.7622 15.8455 18.1253C15.6007 18.3481 15.3546 18.5692 15.0981 18.8006Z" fill="#F381A5"/>
<path fill-rule="evenodd" clip-rule="evenodd" d="M15.1145 18.814L15.2118 18.7066C14.5624 18.1121 13.9044 17.5362 13.2807 16.9303C12.9108 16.569 12.7496 16.1379 12.7482 15.6519C12.7482 15.5227 12.7599 15.39 12.7829 15.2543C12.8221 15.0287 12.9101 14.8491 13.0411 14.7078C13.1721 14.5668 13.3485 14.4622 13.5719 14.3989C13.6953 14.3641 13.8119 14.3478 13.9233 14.3478C14.2403 14.3489 14.5191 14.4781 14.7783 14.7416C14.8549 14.8197 14.924 14.9178 14.989 14.9979L15.086 15.1168L15.1987 15.0128C15.3854 14.8387 15.5425 14.6515 15.7196 14.5361C15.919 14.4045 16.1369 14.3447 16.3511 14.3447C16.6114 14.3447 16.8654 14.4342 17.0655 14.5938C17.2652 14.7541 17.411 14.981 17.4609 15.2646C17.4835 15.3952 17.4945 15.523 17.4949 15.6474C17.4935 16.1344 17.3244 16.5697 16.9531 16.9407C16.5756 17.3158 16.1658 17.6658 15.7643 18.0312C15.5202 18.2534 15.274 18.4744 15.0176 18.7062L15.1145 18.814L15.2118 18.7066L15.1145 18.814L15.2111 18.9221C15.4669 18.6907 15.7134 18.4696 15.9585 18.2464C16.3556 17.8851 16.7685 17.5328 17.1563 17.1469C17.5805 16.7269 17.785 16.2042 17.784 15.6474C17.784 15.505 17.7709 15.3607 17.7455 15.2145C17.684 14.8598 17.4969 14.5668 17.2453 14.3665C16.9933 14.1654 16.677 14.0542 16.3511 14.0542C16.083 14.0542 15.8079 14.1299 15.5607 14.2932C15.3359 14.4428 15.1716 14.6442 15.0031 14.7986L15.1008 14.9057L15.2128 14.8135C15.1582 14.7475 15.0825 14.638 14.9849 14.5378C14.6865 14.2314 14.3241 14.0563 13.9233 14.057C13.7834 14.057 13.64 14.078 13.4939 14.1191C13.2281 14.1938 13.0009 14.3247 12.8297 14.5098C12.6578 14.6943 12.5447 14.9313 12.4983 15.2052C12.4722 15.3558 12.4587 15.505 12.4587 15.6519C12.4577 16.2042 12.653 16.7262 13.08 17.1393C13.7108 17.7521 14.3705 18.3297 15.0172 18.9214L15.1138 19.0099L15.2111 18.9221L15.1145 18.814Z" fill="#B22254"/>
<path d="M15.1145 18.814L15.2118 18.7066C14.5624 18.1121 13.9044 17.5362 13.2807 16.9303C12.9108 16.569 12.7496 16.1379 12.7482 15.6519C12.7482 15.5227 12.7599 15.39 12.7829 15.2543C12.8221 15.0287 12.9101 14.8491 13.0411 14.7078C13.1721 14.5668 13.3485 14.4622 13.5719 14.3989C13.6953 14.3641 13.8119 14.3478 13.9233 14.3478C14.2403 14.3489 14.5191 14.4781 14.7783 14.7416C14.8549 14.8197 14.924 14.9178 14.989 14.9979L15.086 15.1168L15.1987 15.0128C15.3854 14.8387 15.5425 14.6515 15.7196 14.5361C15.919 14.4045 16.1369 14.3447 16.3511 14.3447C16.6114 14.3447 16.8654 14.4342 17.0655 14.5938C17.2652 14.7541 17.411 14.981 17.4609 15.2646C17.4835 15.3952 17.4945 15.523 17.4949 15.6474C17.4935 16.1344 17.3244 16.5697 16.9531 16.9407C16.5756 17.3158 16.1658 17.6658 15.7643 18.0312C15.5202 18.2534 15.274 18.4744 15.0176 18.7062L15.1145 18.814L15.2118 18.7066L15.1145 18.814L15.2111 18.9221C15.4669 18.6907 15.7134 18.4696 15.9585 18.2464C16.3556 17.8851 16.7685 17.5328 17.1563 17.1469C17.5805 16.7269 17.785 16.2042 17.784 15.6474C17.784 15.505 17.7709 15.3607 17.7455 15.2145C17.684 14.8598 17.4969 14.5668 17.2453 14.3665C16.9933 14.1654 16.677 14.0542 16.3511 14.0542C16.083 14.0542 15.8079 14.1299 15.5607 14.2932C15.3359 14.4428 15.1716 14.6442 15.0031 14.7986L15.1008 14.9057L15.2128 14.8135C15.1582 14.7475 15.0825 14.638 14.9849 14.5378C14.6865 14.2314 14.3241 14.0563 13.9233 14.057C13.7834 14.057 13.64 14.078 13.4939 14.1191C13.2281 14.1938 13.0009 14.3247 12.8297 14.5098C12.6578 14.6943 12.5447 14.9313 12.4983 15.2052C12.4722 15.3558 12.4587 15.505 12.4587 15.6519C12.4577 16.2042 12.653 16.7262 13.08 17.1393C13.7108 17.7521 14.3705 18.3297 15.0172 18.9214L15.1138 19.0099L15.2111 18.9221L15.1145 18.814Z" stroke="#B22254" stroke-width="0.5"/>
</svg>
