<svg width="24" height="24" viewBox="0 0 24 24" fill="none" xmlns="http://www.w3.org/2000/svg">
<circle cx="12" cy="12" r="12" fill="#FFDCEA"/>
<path fill-rule="evenodd" clip-rule="evenodd" d="M18.6611 7.17041L16.6475 10.2448L16.7102 10.2847L18.7237 7.21036" fill="#B22254"/>
<path d="M18.4382 7.02438C18.5188 6.9012 18.6841 6.86674 18.8073 6.94742L18.8328 6.96783L18.8699 6.98737C18.9794 7.05908 19.0188 7.19762 18.9695 7.31404L18.9469 7.35648L16.9333 10.4308C16.8533 10.553 16.69 10.5881 16.5669 10.5096L16.5043 10.4696C16.3791 10.3897 16.3432 10.223 16.4246 10.0987L18.4382 7.02438Z" fill="#B22254"/>
<path fill-rule="evenodd" clip-rule="evenodd" d="M6.32902 7.17041L8.34259 10.2448L8.27995 10.2847L6.26638 7.21036" fill="#B22254"/>
<path d="M6.55231 7.02438C6.47163 6.9012 6.30638 6.86674 6.1832 6.94742L6.15767 6.96783L6.12056 6.98737C6.01107 7.05908 5.97168 7.19762 6.02094 7.31404L6.0436 7.35648L8.05718 10.4308C8.13717 10.553 8.3005 10.5881 8.42358 10.5096L8.48622 10.4696C8.61143 10.3897 8.64725 10.223 8.56588 10.0987L6.55231 7.02438Z" fill="#B22254"/>
<path fill-rule="evenodd" clip-rule="evenodd" d="M12.4978 5.37018L12.5042 7.65367L12.4644 7.66388L12.458 5.38039" fill="#B22254"/>
<path d="M12.7641 5.36918C12.7637 5.22194 12.644 5.10291 12.4968 5.10332C12.4804 5.10337 12.4644 5.10488 12.4489 5.10775L12.4133 5.11824C12.3003 5.13802 12.2147 5.22407 12.1953 5.33296L12.1911 5.38089L12.1975 7.66439C12.198 7.83818 12.362 7.96506 12.5303 7.9219L12.5702 7.91169C12.6884 7.88139 12.7709 7.77471 12.7706 7.65268L12.7641 5.36918Z" fill="#B22254"/>
<path fill-rule="evenodd" clip-rule="evenodd" d="M18.5216 12.7047L17.5789 18.1969C17.5252 18.5091 17.2546 18.7372 16.9381 18.7372H7.98297C7.66643 18.7372 7.39586 18.5091 7.34209 18.1969L6.3994 12.7047C6.35777 12.4644 6.4549 12.2207 6.65003 12.0742C6.84603 11.9268 7.10533 11.9033 7.32561 12.01L9.83539 13.2319L11.8925 9.53145C12.1214 9.11777 12.8005 9.11777 13.0294 9.53145L15.0865 13.2319L17.5963 12.01C17.8157 11.9033 18.0759 11.9268 18.2719 12.0742C18.4661 12.2207 18.5633 12.4644 18.5216 12.7047Z" fill="#F381A5"/>
<path fill-rule="evenodd" clip-rule="evenodd" d="M9.85121 13.033L11.7989 9.5311C12.1184 8.95383 13.0326 8.95383 13.3521 9.5311L15.2991 13.033L17.6068 11.9109C17.8696 11.7832 18.1746 11.7927 18.4257 11.9317L18.5297 11.9991C18.7953 12.1995 18.9274 12.5323 18.8707 12.8598L17.9279 18.3521C17.8545 18.7784 17.485 19.0899 17.0526 19.0899H8.09753C7.66514 19.0899 7.29561 18.7784 7.22217 18.352L6.27955 12.8601C6.22268 12.5319 6.3551 12.1991 6.62158 11.9989C6.88841 11.7982 7.24287 11.765 7.5443 11.911L9.85121 13.033ZM15.1027 13.6592L12.9359 9.76134C12.7975 9.51127 12.3537 9.51127 12.215 9.76173L10.0485 13.6592L7.33657 12.3388C7.19547 12.2705 7.03151 12.2859 6.90755 12.3791C6.78364 12.4722 6.72212 12.6268 6.74851 12.7791L7.69118 18.2712C7.72529 18.4693 7.89691 18.614 8.09762 18.614H17.0527C17.2534 18.614 17.425 18.4693 17.4591 18.2713L18.4019 12.7787C18.4282 12.6269 18.3667 12.472 18.2435 12.379C18.1198 12.2859 17.9551 12.2705 17.8151 12.3386L15.1027 13.6592Z" fill="#B22254"/>
</svg>
