<svg width="24" height="24" viewBox="0 0 24 24" fill="none" xmlns="http://www.w3.org/2000/svg">
<path fill-rule="evenodd" clip-rule="evenodd" d="M11.9448 5.42285C10.0784 5.42285 8.56543 6.93605 8.56543 8.80254C8.56543 10.669 10.0784 12.1822 11.9448 12.1822C13.8112 12.1822 15.3245 10.669 15.3245 8.80254C15.3245 6.9361 13.8112 5.42285 11.9448 5.42285ZM11.9448 5.93854C13.5264 5.93854 14.8088 7.22091 14.8088 8.80254C14.8088 10.3842 13.5264 11.6665 11.9448 11.6665C10.3632 11.6665 9.08112 10.3842 9.08112 8.80254C9.08112 7.22084 10.3632 5.93854 11.9448 5.93854Z" fill="#231F20"/>
<path d="M11.9448 5.14507C9.92496 5.14507 8.28765 6.78266 8.28765 8.80254H8.84321C8.84321 7.08943 10.2318 5.70063 11.9448 5.70063V5.14507ZM8.28765 8.80254C8.28765 10.8224 9.92496 12.46 11.9448 12.46V11.9044C10.2318 11.9044 8.84321 10.5156 8.84321 8.80254H8.28765ZM11.9448 12.46C13.9646 12.46 15.6022 10.8224 15.6022 8.80254H15.0467C15.0467 10.5156 13.6578 11.9044 11.9448 11.9044V12.46ZM15.6022 8.80254C15.6022 6.78269 13.9646 5.14507 11.9448 5.14507V5.70063C13.6578 5.70063 15.0467 7.08951 15.0467 8.80254H15.6022ZM11.9448 6.21632C13.373 6.21632 14.531 7.37432 14.531 8.80254H15.0866C15.0866 7.0675 13.6798 5.66077 11.9448 5.66077V6.21632ZM14.531 8.80254C14.531 10.2308 13.373 11.3888 11.9448 11.3888V11.9443C13.6798 11.9443 15.0866 10.5376 15.0866 8.80254H14.531ZM11.9448 11.3888C10.5167 11.3888 9.3589 10.2309 9.3589 8.80254H8.80335C8.80335 10.5376 10.2098 11.9443 11.9448 11.9443V11.3888ZM9.3589 8.80254C9.3589 7.37422 10.5167 6.21632 11.9448 6.21632V5.66077C10.2098 5.66077 8.80335 7.06746 8.80335 8.80254H9.3589Z" fill="#231F20"/>
<path fill-rule="evenodd" clip-rule="evenodd" d="M12.0488 13.3032C15.3891 13.3032 18.2028 15.7581 18.6855 19.0222L18.7014 19.1364L18.19 19.2031C17.7902 16.1383 15.1681 13.8189 12.0488 13.8189C8.96313 13.8189 6.36424 16.0893 5.9224 19.1031L5.90702 19.215L5.39551 19.1495C5.8215 15.8236 8.66476 13.3032 12.0488 13.3032Z" fill="#231F20" stroke="#231F20" stroke-width="0.555556"/>
<path fill-rule="evenodd" clip-rule="evenodd" d="M11.945 2C6.42221 2 1.94531 6.47711 1.94531 12C1.94531 17.5229 6.42221 22 11.945 22C17.468 22 21.9447 17.523 21.9447 12C21.9447 6.477 17.468 2 11.945 2ZM11.945 2.64491C17.1118 2.64491 21.2998 6.83318 21.2998 12C21.2998 17.1669 17.1118 21.3552 11.945 21.3552C6.77838 21.3552 2.59019 17.1668 2.59019 12C2.59019 6.8333 6.77838 2.64491 11.945 2.64491Z" fill="#231F20"/>
<path d="M11.945 1.8C6.31175 1.8 1.74531 6.36666 1.74531 12H2.14531C2.14531 6.58756 6.53268 2.2 11.945 2.2V1.8ZM1.74531 12C1.74531 17.6333 6.31175 22.2 11.945 22.2V21.8C6.53268 21.8 2.14531 17.4124 2.14531 12H1.74531ZM11.945 22.2C17.5784 22.2 22.1447 17.6335 22.1447 12H21.7447C21.7447 17.4126 17.3575 21.8 11.945 21.8V22.2ZM22.1447 12C22.1447 6.36655 17.5784 1.8 11.945 1.8V2.2C17.3575 2.2 21.7447 6.58745 21.7447 12H22.1447ZM11.945 2.84491C17.0014 2.84491 21.0998 6.94363 21.0998 12H21.4998C21.4998 6.72274 17.2223 2.44491 11.945 2.44491V2.84491ZM21.0998 12C21.0998 17.0565 17.0014 21.1552 11.945 21.1552V21.5552C17.2223 21.5552 21.4998 17.2774 21.4998 12H21.0998ZM11.945 21.1552C6.88884 21.1552 2.79019 17.0563 2.79019 12H2.39019C2.39019 17.2772 6.66791 21.5552 11.945 21.5552V21.1552ZM2.79019 12C2.79019 6.94375 6.88884 2.84491 11.945 2.84491V2.44491C6.66791 2.44491 2.39019 6.72285 2.39019 12H2.79019Z" fill="#231F20"/>
</svg>
