<svg width="24" height="24" viewBox="0 0 24 24" fill="none" xmlns="http://www.w3.org/2000/svg">
<g clip-path="url(#clip0_5234_20908)">
<path fill-rule="evenodd" clip-rule="evenodd" d="M11.196 21.0859C11.4618 21.3517 11.8192 21.5 12.194 21.5C12.5644 21.5 12.9304 21.3474 13.1919 21.0859L21.0227 13.2551C22.2124 12.0654 22.866 10.4834 22.8705 8.80582C22.8705 7.12356 22.2168 5.54173 21.0272 4.35206C19.8375 3.16238 18.26 2.50872 16.5779 2.50872C14.9263 2.50872 13.3707 3.1407 12.1895 4.291C11.0043 3.13624 9.44421 2.5 7.78831 2.5C6.11057 2.5 4.53301 3.15367 3.34334 4.33909C2.15367 5.52877 1.5 7.11059 1.5 8.79264C1.5 10.4704 2.15791 12.0522 3.3478 13.2419L11.196 21.0859ZM4.10169 5.09728C5.08643 4.11253 6.39823 3.56781 7.79261 3.56781C9.18715 3.56781 10.5032 4.11253 11.4924 5.10175L11.8148 5.42412C11.915 5.52435 12.0501 5.58094 12.194 5.58094C12.3333 5.58094 12.4729 5.52435 12.5731 5.42412L12.8868 5.11047C13.876 4.12125 15.1878 3.57653 16.5866 3.57653C17.981 3.57653 19.2928 4.12125 20.2776 5.106C21.2668 6.09522 21.8072 7.4068 21.8072 8.8014C21.8072 10.1959 21.2625 11.5075 20.2733 12.4968L12.438 20.332C12.3116 20.4585 12.0805 20.4585 11.9499 20.332L4.10594 12.488C3.11672 11.4988 2.572 10.1872 2.572 8.79269C2.572 7.3983 3.11672 6.0865 4.10169 5.09728Z" fill="#8C8582"/>
<mask id="mask0_5234_20908" style="mask-type:luminance" maskUnits="userSpaceOnUse" x="1" y="2" width="22" height="20">
<path fill-rule="evenodd" clip-rule="evenodd" d="M11.196 21.0859C11.4618 21.3517 11.8192 21.5 12.194 21.5C12.5644 21.5 12.9304 21.3474 13.1919 21.0859L21.0227 13.2551C22.2124 12.0654 22.866 10.4834 22.8705 8.80582C22.8705 7.12356 22.2168 5.54173 21.0272 4.35206C19.8375 3.16238 18.26 2.50872 16.5779 2.50872C14.9263 2.50872 13.3707 3.1407 12.1895 4.291C11.0043 3.13624 9.44421 2.5 7.78831 2.5C6.11057 2.5 4.53301 3.15367 3.34334 4.33909C2.15367 5.52877 1.5 7.11059 1.5 8.79264C1.5 10.4704 2.15791 12.0522 3.3478 13.2419L11.196 21.0859ZM4.10169 5.09728C5.08643 4.11253 6.39823 3.56781 7.79261 3.56781C9.18715 3.56781 10.5032 4.11253 11.4924 5.10175L11.8148 5.42412C11.915 5.52435 12.0501 5.58094 12.194 5.58094C12.3333 5.58094 12.4729 5.52435 12.5731 5.42412L12.8868 5.11047C13.876 4.12125 15.1878 3.57653 16.5866 3.57653C17.981 3.57653 19.2928 4.12125 20.2776 5.106C21.2668 6.09522 21.8072 7.4068 21.8072 8.8014C21.8072 10.1959 21.2625 11.5075 20.2733 12.4968L12.438 20.332C12.3116 20.4585 12.0805 20.4585 11.9499 20.332L4.10594 12.488C3.11672 11.4988 2.572 10.1872 2.572 8.79269C2.572 7.3983 3.11672 6.0865 4.10169 5.09728Z" fill="white"/>
</mask>
<g mask="url(#mask0_5234_20908)">
<path fill-rule="evenodd" clip-rule="evenodd" d="M-2.0625 -2.25H26.4374V26.2499H-2.0625V-2.25Z" fill="#231F20"/>
</g>
</g>
<defs>
<clipPath id="clip0_5234_20908">
<rect width="21.3749" height="19" fill="white" transform="translate(1.5 2.5)"/>
</clipPath>
</defs>
</svg>
