<svg width="13" height="12" viewBox="0 0 13 12" fill="none" xmlns="http://www.w3.org/2000/svg">
<path d="M2.9411 10.8731C2.65132 10.8918 2.35534 10.7873 2.13684 10.5628C1.73548 10.1513 1.74168 9.49028 2.15079 9.08807L5.20513 6.07309L3.22624 3.92644C2.83728 3.50397 2.86207 2.84454 3.28203 2.45169C3.70198 2.06039 4.35748 2.08534 4.74799 2.50781L7.41182 5.39807C7.79303 5.81275 7.77753 6.45659 7.37773 6.85256L3.60435 10.5769C3.41839 10.7593 3.18285 10.859 2.94265 10.8731H2.9411Z" fill="url(#paint0_linear_5735_31842)"/>
<path d="M7.7882 7.27275L6.74219 8.30632L8.1818 9.86838C8.40185 10.1069 8.70713 10.2191 9.00621 10.2004C9.23711 10.1864 9.46336 10.0944 9.64621 9.9245C10.0662 9.53321 10.091 8.87222 9.702 8.44974L8.14306 6.7583C8.06093 6.94537 7.94316 7.12153 7.7882 7.27431V7.27275Z" fill="#FF82B4"/>
<path d="M10.7896 1.81223C10.3882 1.40223 9.73274 1.39444 9.32363 1.7982L7.00537 4.08672L7.84063 4.99402C8.05448 5.22474 8.1862 5.50067 8.24353 5.78752L10.7756 3.28854C11.1848 2.88478 11.191 2.22535 10.7896 1.81379V1.81223Z" fill="#FF82B4"/>
<defs>
<linearGradient id="paint0_linear_5735_31842" x1="1.6398" y1="6.63774" x2="7.69689" y2="6.26527" gradientUnits="userSpaceOnUse">
<stop offset="0.13" stop-color="#FF6B71"/>
<stop offset="0.53" stop-color="#F93C78"/>
<stop offset="1" stop-color="#F20081"/>
</linearGradient>
</defs>
</svg>
