<?xml version="1.0" encoding="UTF-8"?>
<svg width="40px" height="40px" viewBox="0 0 40 40" version="1.1" xmlns="http://www.w3.org/2000/svg" xmlns:xlink="http://www.w3.org/1999/xlink">
    <!-- Generator: Sketch 60.1 (88133) - https://sketch.com -->
    <title>icon - promotions</title>
    <desc>Created with Sketch.</desc>
    <g id="Page-1" stroke="none" stroke-width="1" fill="none" fill-rule="evenodd">
        <g id="HOME---alt01-Copy-2" transform="translate(-34.000000, -509.000000)">
            <g id="Group-32" transform="translate(16.000000, 507.000000)">
                <g id="Group-28">
                    <g id="icon---promotions" transform="translate(18.000000, 2.000000)">
                        <circle id="Oval" fill="#FFF3F3" cx="20" cy="20" r="20"></circle>
                        <g id="Group-18" transform="translate(8.333333, 6.666667)">
                            <polyline id="Fill-1" fill="#EE365D" points="19.1727407 6.03961325e-15 2.63387728 25.7149677 3.14835178 26.0491183 19.6872152 0.334150538"></polyline>
                            <path d="M6.71612692,11.6600258 C5.34516517,10.4045849 3.95018976,9.18424086 2.62288922,7.89443441 C1.55537282,6.85688602 1.2337353,5.51589677 1.48042109,4.07327312 C1.66088739,3.0159828 2.33326991,2.3103914 3.3680404,2.01864946 C4.47048575,1.70789677 5.42739377,2.01060645 6.22348302,2.8244129 C6.40831545,3.01305806 6.56112965,3.2324129 6.68774714,3.38742366 C7.06396116,3.04011183 7.40379085,2.62845591 7.82948758,2.3484129 C9.45222892,1.27796129 11.6527535,2.18828387 11.983851,4.09374624 C12.2341752,5.53271398 11.8805195,6.8620043 10.8239184,7.91271398 C10.0132754,8.71847742 9.14223439,9.46209032 8.29739013,10.2305634 C7.77927719,10.7021763 7.2589812,11.1701333 6.71612692,11.6600258" id="Fill-2" fill="#FEDFE2"></path>
                            <path d="M5.62066736,10.5593032 L5.82660269,10.3319054 C4.45200251,9.07353978 3.05921016,7.85465806 1.73991417,6.57216344 C0.956195591,5.80734624 0.614910527,4.89483011 0.61199978,3.86605591 C0.61199978,3.59259355 0.636741128,3.31108817 0.686223824,3.02446452 C0.768452421,2.54700215 0.954740217,2.1667871 1.23198885,1.86773333 C1.50923749,1.56941075 1.88254076,1.34786237 2.35553712,1.21405591 C2.61677665,1.14020645 2.86346244,1.10510968 3.09923293,1.10510968 C3.77088776,1.10730323 4.36031399,1.38149677 4.90898976,1.93865806 C5.0712639,2.10390538 5.21825661,2.31229247 5.3557894,2.48192688 L5.56099705,2.73272258 L5.79967829,2.51263656 C6.19408448,2.14485161 6.5266373,1.74855054 6.90139596,1.50433548 C7.32345424,1.22575484 7.78480761,1.09926022 8.23815643,1.09926022 C8.78901526,1.09926022 9.32750342,1.28863656 9.7502894,1.62717419 C10.1730754,1.96571183 10.4823422,2.44609892 10.5871291,3.0464 C10.6351564,3.3227871 10.6591701,3.59332473 10.6591701,3.85655054 C10.6562593,4.88824946 10.2982375,5.8088086 9.51233585,6.59336774 C8.71333585,7.38816344 7.84666098,8.12885161 6.99599523,8.90244301 C6.48006535,9.37259355 5.95904167,9.83981935 5.41618739,10.330443 L5.62066736,10.5593032 L5.82660269,10.3319054 L5.62066736,10.5593032 L5.82514732,10.7874323 C6.36727392,10.298271 6.88829759,9.83031398 7.40713821,9.35796989 C8.24761636,8.59315269 9.12156809,7.84661505 9.94239869,7.03061505 C10.8403641,6.14149677 11.2733377,5.0352172 11.2711628,3.85655054 C11.2711628,3.55530323 11.2435025,3.24966882 11.1896537,2.94037849 C11.0593978,2.18945376 10.6642639,1.57014194 10.1308695,1.14532473 C9.59820288,0.719776344 8.92800342,0.484335484 8.23815643,0.484335484 C7.6705608,0.484335484 7.08913912,0.644464516 6.5652047,0.990313978 C6.08929759,1.30691613 5.74146335,1.7331957 5.38489687,2.06003441 L5.59228758,2.28670108 L5.82878575,2.09147527 C5.71308357,1.95108817 5.55299249,1.72003441 5.34632947,1.5079914 C4.71469741,0.859432258 3.94844331,0.488722581 3.09923293,0.490184946 C2.80379213,0.490184946 2.49961909,0.534787097 2.19035224,0.621797849 C1.62785042,0.779733333 1.14757719,1.05685161 0.784461529,1.44876559 C0.420618177,1.8392172 0.181209252,2.3408086 0.0829715471,2.92063656 C0.0276673577,3.23943226 -3.52310773e-14,3.55457204 -3.52310773e-14,3.86605591 C-0.00289548383,5.03448602 0.410430564,6.14003441 1.31421745,7.01452903 C2.64952255,8.31164731 4.04668102,9.53418495 5.41473202,10.7867011 L5.61921198,10.9738839 L5.82514732,10.7874323 L5.62066736,10.5593032 Z" id="Fill-4" fill="#EE365D"></path>
                            <g id="Group-34" transform="translate(11.554143, 17.048404)">
                                <path d="M6.7164841,11.1759828 C5.34552235,9.92054194 3.95127463,8.70019785 2.6232464,7.40966022 C1.55500232,6.37284301 1.23409248,5.03185376 1.48077827,3.58923011 C1.66124458,2.53193978 2.33435478,1.82634839 3.36912527,1.53387527 C4.47084294,1.22385376 5.42775095,1.52656344 6.2238402,2.34036989 C6.40867263,2.52828387 6.56148683,2.74836989 6.68810432,2.90338065 C7.06359066,2.55533763 7.40414804,2.1444129 7.82984476,1.86363871 C9.45258611,0.79391828 11.6531107,1.70350968 11.9842081,3.60970323 C12.2345324,5.04867097 11.8808766,6.37796129 10.8235479,7.42867097 C10.0136326,8.23370323 9.14331926,8.97804731 8.29847499,9.74652043 C7.78036206,10.2181333 7.25933838,10.6860903 6.7164841,11.1759828" id="Fill-6" fill="#FEDFE2"></path>
                                <path d="M5.62138838,10.0749677 L5.82732372,9.84756989 C4.45272354,8.5892043 3.05993119,7.37032258 1.73990751,6.08782796 C0.956916615,5.32301075 0.615631552,4.41049462 0.612720805,3.38172043 C0.612720805,3.10825806 0.637462153,2.82748387 0.686217162,2.54012903 C0.769173446,2.06266667 0.955461242,1.68245161 1.23270988,1.38339785 C1.50995851,1.08507527 1.88326179,0.863526882 2.35625815,0.72972043 C2.61749767,0.655870968 2.86418346,0.621505376 3.09995396,0.621505376 C3.7708811,0.623698925 4.36103501,0.89716129 4.90971079,1.45505376 C5.07198492,1.62030108 5.21824995,1.82795699 5.35578274,1.9975914 L5.56099039,2.24911828 L5.79967162,2.02903226 C6.1948055,1.66051613 6.52735833,1.26421505 6.90211698,1.02 C7.32417527,0.741419355 7.78552864,0.614924731 8.23887745,0.614924731 C8.78973629,0.614924731 9.32749676,0.804301075 9.75101042,1.14210753 C10.1737964,1.48137634 10.4823356,1.96176344 10.5878501,2.56206452 C10.6358775,2.83845161 10.6591634,3.10898925 10.6598911,3.37221505 C10.6569804,4.4031828 10.2989585,5.32447312 9.51305687,6.10976344 C8.71405687,6.90382796 7.84665432,7.64451613 6.99671625,8.41810753 C6.48005869,8.88825806 5.95903501,9.35621505 5.41618073,9.84683871 L5.62138838,10.0749677 L5.82732372,9.84756989 L5.62138838,10.0749677 L5.82586835,10.303828 C6.36726725,9.81393548 6.88901862,9.34597849 7.40785924,8.87363441 C8.24833738,8.1088172 9.12228911,7.36301075 9.94311971,6.54627957 C10.8410851,5.65716129 11.2740587,4.55088172 11.2718838,3.37221505 C11.2718838,3.07096774 11.2442235,2.76533333 11.1903747,2.45604301 C11.0601188,1.70511828 10.6642572,1.08507527 10.1315906,0.660989247 C9.59819621,0.23544086 8.92872445,-8.8817842e-15 8.23887745,-8.8817842e-15 C7.67128182,-8.8817842e-15 7.08913246,0.160129032 6.56592572,0.505978495 C6.09001862,0.822580645 5.74218438,1.24886022 5.38561789,1.57569892 L5.59228091,1.80236559 L5.82950678,1.60713978 C5.71380459,1.46748387 5.55371352,1.23569892 5.3470505,1.02365591 C4.71541844,0.375096774 3.94843665,0.00438709677 3.09995396,0.00584946237 C2.80378547,0.00584946237 2.50034011,0.0504516129 2.19107326,0.137462366 C1.62857144,0.295397849 1.14757053,0.572516129 0.785182554,0.964430108 C0.421339202,1.35488172 0.181930277,1.85647312 0.0836925717,2.43630108 C0.0283883823,2.75509677 -3.53791071e-13,3.07096774 -3.53791071e-13,3.38172043 C-0.00217445922,4.55088172 0.411151588,5.65569892 1.31493847,6.53019355 C2.65024357,7.82731183 4.04667436,9.04984946 5.41545305,10.3023656 L5.61993301,10.4895484 L5.82586835,10.303828 L5.62138838,10.0749677 Z" id="Fill-8" fill="#EE365D"></path>
                            </g>
                        </g>
                    </g>
                </g>
            </g>
        </g>
    </g>
</svg>