<?xml version="1.0" encoding="UTF-8"?>
<svg width="40px" height="40px" viewBox="0 0 40 40" version="1.1" xmlns="http://www.w3.org/2000/svg" xmlns:xlink="http://www.w3.org/1999/xlink">
    <!-- Generator: Sketch 60.1 (88133) - https://sketch.com -->
    <title>icon - new arrivals</title>
    <desc>Created with Sketch.</desc>
    <g id="Page-1" stroke="none" stroke-width="1" fill="none" fill-rule="evenodd">
        <g id="HOME---alt01-Copy-2" transform="translate(-118.000000, -509.000000)">
            <g id="Group-32" transform="translate(16.000000, 507.000000)">
                <g id="Group-28-Copy" transform="translate(84.000000, 0.000000)">
                    <g id="icon---new-arrivals" transform="translate(18.000000, 2.000000)">
                        <circle id="Oval" fill="#FFF3F3" cx="20" cy="20" r="20"></circle>
                        <g id="Group-30" transform="translate(11.666667, 6.666667)">
                            <g id="Group-6">
                                <g id="Group-3">
                                    <path d="M18.348842,24.9569094 L1.98181609,24.9569094 C1.69267816,24.9569094 1.45832471,24.7421423 1.45832471,24.4772181 L1.45832471,9.48084288 C1.45832471,9.2159187 1.69272126,9.00119109 1.98181609,9.00119109 L18.348842,9.00119109 C18.6379799,9.00119109 18.8723333,9.21595819 18.8723333,9.48084288 L18.8723333,24.4772181 C18.8723333,24.7421423 18.6379368,24.9569094 18.348842,24.9569094" id="Fill-1" fill="#FEDFE2"></path>
                                    <path d="M16.8905172,23.4557183 L0.523491379,23.4557183 C0.234353448,23.4557183 0,23.2409512 0,22.9760271 L0,7.97965179 C0,7.7147276 0.234396552,7.5 0.523491379,7.5 L16.8905172,7.5 C17.1796552,7.5 17.4140086,7.7147671 17.4140086,7.97965179 L17.4140086,22.9760271 C17.4140086,23.2409512 17.1796121,23.4557183 16.8905172,23.4557183" id="Fill-1" stroke="#EB395F" stroke-width="0.666666667"></path>
                                    <g id="Group-33" transform="translate(1.250000, 0.000000)" stroke="#EB395F" stroke-width="0.666666667">
                                        <path d="M7.16666667,7.81069917 C9.34412722,0.992626865 11.6057378,-1.36174997 13.9514985,0.74756865 C16.2972592,2.85688727 14.0356486,5.21126411 7.16666667,7.81069917 Z" id="Path-2"></path>
                                        <path d="M-3.56455606e-13,7.81069917 C2.17746056,0.992626865 4.43907118,-1.36174997 6.78483186,0.74756865 C9.13059254,2.85688727 6.86898192,5.21126411 -3.56455606e-13,7.81069917 Z" id="Path-2" transform="translate(3.840279, 3.905350) scale(-1, 1) translate(-3.840279, -3.905350) "></path>
                                    </g>
                                </g>
                            </g>
                        </g>
                    </g>
                </g>
            </g>
        </g>
    </g>
</svg>