<?xml version="1.0" encoding="UTF-8"?>
<svg width="40px" height="40px" viewBox="0 0 40 40" version="1.1" xmlns="http://www.w3.org/2000/svg" xmlns:xlink="http://www.w3.org/1999/xlink">
    <!-- Generator: Sketch 60.1 (88133) - https://sketch.com -->
    <title>icon - best sellers</title>
    <desc>Created with Sketch.</desc>
    <g id="Page-1" stroke="none" stroke-width="1" fill="none" fill-rule="evenodd">
        <g id="HOME---alt01-Copy-2" transform="translate(-202.000000, -509.000000)">
            <g id="Group-32" transform="translate(16.000000, 507.000000)">
                <g id="Group-28-Copy-2" transform="translate(168.000000, 0.000000)">
                    <g id="icon---best-sellers" transform="translate(18.000000, 2.000000)">
                        <circle id="Oval" fill="#FFF3F3" cx="20" cy="20" r="20"></circle>
                        <polyline id="Fill-1" stroke="#EB395F" stroke-width="0.666666667" fill="#EE365D" points="29.8994382 9.38245161 26.6666667 14.3183131 26.7672285 14.3824516 30 9.44659016"></polyline>
                        <polyline id="Fill-1" stroke="#EB395F" stroke-width="0.666666667" fill="#EE365D" transform="translate(11.666667, 11.882452) scale(-1, 1) translate(-11.666667, -11.882452) " points="13.2327715 9.38245161 10 14.3183131 10.1005618 14.3824516 13.3333333 9.44659016"></polyline>
                        <polyline id="Fill-1" stroke="#EB395F" stroke-width="0.666666667" fill="#EE365D" transform="translate(20.833333, 8.333333) scale(-1, 1) rotate(-26.000000) translate(-20.833333, -8.333333) " points="21.6163857 6.66666667 20 9.95724097 20.0502809 10 21.6666667 6.7094257"></polyline>
                        <g id="Group-27" transform="translate(8.333333, 8.333333)">
                            <g id="Group-24" transform="translate(1.666667, 5.000000)">
                                <path d="M21.3871004,7.50239625 L19.8736289,16.3200734 C19.7873039,16.8213151 19.3528944,17.1875 18.844691,17.1875 L4.46740792,17.1875 C3.95920452,17.1875 3.52479503,16.8213151 3.43847007,16.3200734 L1.92499857,7.50239625 C1.85816634,7.11671859 2.01410821,6.72547159 2.32738428,6.49016645 C2.64205269,6.25346898 3.05836177,6.21587585 3.41201565,6.38713344 L7.44144208,8.3489378 L10.744068,2.40783117 C11.1116453,1.7436859 12.201846,1.7436859 12.5694233,2.40783117 L15.8720492,8.3489378 L19.9014757,6.38713344 C20.2537372,6.21587585 20.6714386,6.25346898 20.986107,6.49016645 C21.2979908,6.72547159 21.4539326,7.11671859 21.3871004,7.50239625 L21.3871004,7.50239625 Z" id="Path" fill="#FEDFE2"></path>
                                <path d="M8.88211375,0.695100364 L5.75514949,6.31736111 L2.05143179,4.51594955 C1.56748472,4.28159628 0.998401103,4.33491487 0.570007876,4.65715757 C0.142180383,4.97850343 -0.0704208056,5.51292238 0.020884819,6.03983192 L1.53425265,14.8569079 C1.6521602,15.5415327 2.24543419,16.0416667 2.93963014,16.0416667 L17.3169133,16.0416667 C18.0111092,16.0416667 18.6043832,15.5415327 18.7222542,14.8571206 L20.2357623,6.0392308 C20.3268603,5.51352196 20.1148492,4.97925398 19.6883661,4.65748772 L19.5213476,4.54917153 C19.1182205,4.32604323 18.6285276,4.31077592 18.2066993,4.51585452 L14.5016773,6.31736111 L11.375822,0.695100364 C10.8628758,-0.231700121 9.39505993,-0.231700121 8.88211375,0.695100364 Z M10.707469,1.06500643 L14.1862076,7.32292417 L18.5408918,5.20276176 C18.7657274,5.0934544 19.0300904,5.11820015 19.2287306,5.26761979 C19.4265546,5.41687143 19.5252411,5.6655614 19.4829866,5.90940501 L17.9694115,14.7276833 C17.9146742,15.0455124 17.639154,15.2777778 17.3169133,15.2777778 L2.93963014,15.2777778 C2.61738944,15.2777778 2.34186925,15.0455124 2.28709538,14.7274706 L0.773660435,5.91000614 C0.731288041,5.66547926 0.830056946,5.41720231 1.02899028,5.26778128 C1.22800495,5.11808009 1.49124063,5.09341701 1.71777168,5.20311512 L6.07172814,7.32292417 L9.55012178,1.06562836 C9.77267509,0.663516376 10.4852607,0.663516376 10.707469,1.06500643 Z" id="Path" fill="#EB395F" fill-rule="nonzero"></path>
                            </g>
                        </g>
                    </g>
                </g>
            </g>
        </g>
    </g>
</svg>