<?xml version="1.0" encoding="UTF-8"?>
<svg width="40px" height="40px" viewBox="0 0 40 40" version="1.1" xmlns="http://www.w3.org/2000/svg" xmlns:xlink="http://www.w3.org/1999/xlink">
    <!-- Generator: Sketch 60.1 (88133) - https://sketch.com -->
    <title>icon - promotions</title>
    <desc>Created with Sketch.</desc>
    <g id="Page-1" stroke="none" stroke-width="1" fill="none" fill-rule="evenodd">
        <g id="HOME---alt01-Copy-2" transform="translate(-286.000000, -509.000000)">
            <g id="Group-32" transform="translate(16.000000, 507.000000)">
                <g id="Group-28-Copy-3" transform="translate(252.000000, 0.000000)">
                    <g id="icon---promotions" transform="translate(18.000000, 2.000000)">
                        <circle id="Oval" fill="#FFF3F3" cx="20" cy="20" r="20"></circle>
                        <g id="gift-card-(3)" transform="translate(7.500000, 10.000000)">
                            <rect id="Rectangle" fill="#FEDFE2" x="2.5" y="2.5" width="23.75" height="18.75" rx="2.5"></rect>
                            <path d="M22.4118943,0.0275330396 L6.36507952,0.0275330396 C6.27344609,-0.00924939427 6.17148783,-0.00924939427 6.07985441,0.0275330396 L2.58810573,0.0275330396 C1.15939912,0.0290387665 0.00150571586,1.18693216 0,2.61563877 L0,16.4647577 C0.00150571586,17.8934643 1.15939912,19.0513577 2.58810573,19.0528634 L22.4118943,19.0528634 C23.8406009,19.0513577 24.9984943,17.8934643 25,16.4647577 L25,2.61563877 C24.9984943,1.18693216 23.8406009,0.0290387665 22.4118943,0.0275330396 Z M24.2290749,2.61563877 L24.2290749,12.3898678 L9.31713761,12.3898678 C9.90952814,12.0362404 10.2732654,11.3980331 10.2754164,10.7082014 C10.2754164,9.62258227 9.38037753,8.73937395 8.28034659,8.73937395 C7.60772302,8.73872863 6.97984064,9.07514802 6.60792952,9.63548838 L6.60792952,0.79845815 L22.4118943,0.79845815 C23.4149143,0.799533645 24.2279994,1.61261872 24.2290749,2.61563877 Z M2.94044262,10.7082014 C2.94861646,10.0396648 3.49626586,9.50384604 4.16458733,9.51029906 C4.38248557,9.51029906 4.59651189,9.5673011 4.78558645,9.67592753 C5.08758948,9.84843921 5.29989504,10.143559 5.36722192,10.4849257 L5.70321101,12.2164957 L3.93421322,11.8845936 C3.36333287,11.7824202 2.94582015,11.2883312 2.94044262,10.7082014 Z M6.741938,12.2164957 L7.077712,10.4849257 C7.20591272,9.87532698 7.77034003,9.45845953 8.39069383,9.51567665 C9.01083254,9.57267863 9.48986443,10.0854815 9.5044913,10.7082014 C9.49911377,11.2881161 9.08181613,11.7822051 8.51093579,11.8845936 L6.741938,12.2164957 Z M2.58810573,0.79845815 L5.83700441,0.79845815 L5.83700441,9.63570347 C5.66685881,9.37736613 5.43863574,9.16247935 5.17061883,9.00803623 C4.86474394,8.83186779 4.51778464,8.73915887 4.16480242,8.73937395 C3.06455639,8.73937395 2.1697326,9.62258227 2.1697326,10.7082014 C2.17188359,11.3980331 2.53562087,12.0364555 3.12801145,12.3898678 L0.77092511,12.3898678 L0.77092511,2.61563877 C0.772000606,1.61261872 1.58508568,0.799533645 2.58810573,0.79845815 Z M0.77092511,16.4647577 L0.77092511,13.160793 L5.29193623,13.160793 L3.47195931,14.9807699 C3.321388,15.1313412 3.321388,15.3752667 3.47195931,15.5258381 C3.62253062,15.6764094 3.86645617,15.6764094 4.01702748,15.5258381 L5.83700441,13.7058611 L5.83700441,18.2819383 L2.58810573,18.2819383 C1.58508568,18.2808628 0.772000606,17.4677778 0.77092511,16.4647577 Z M22.4118943,18.2819383 L6.60792952,18.2819383 L6.60792952,13.7058611 L9.06116635,16.159098 C9.21173767,16.3096693 9.45566322,16.3096693 9.60623453,16.159098 C9.75680584,16.0085267 9.75680584,15.7646011 9.60623453,15.6140298 L7.15299769,13.160793 L24.2290749,13.160793 L24.2290749,16.4647577 C24.2279994,17.4677778 23.4149143,18.2808628 22.4118943,18.2819383 Z" id="Shape" fill="#EE365D" fill-rule="nonzero"></path>
                        </g>
                    </g>
                </g>
            </g>
        </g>
    </g>
</svg>