<svg width="10" height="14" viewBox="0 0 10 14" fill="none" xmlns="http://www.w3.org/2000/svg">
<g clip-path="url(#clip0_3495_35126)">
<path d="M8.50003 5H5.53105L5.99797 1.05902C5.99953 1.0495 5.99999 1.01004 5.99999 0.999969C5.99999 0.719543 5.78054 0.5 5.50002 0.5C5.34355 0.5 5.1935 0.574524 5.09206 0.711487L1.09998 6.70004C1.03552 6.78601 1 6.89249 1 6.99997C1 7.28049 1.21954 7.50003 1.49997 7.50003H3.972L3.5015 11.9485C3.5005 11.9575 3.50004 11.991 3.50004 12C3.50004 12.2805 3.71949 12.5 4.00001 12.5C4.15648 12.5 4.30653 12.4255 4.4055 12.292L8.90002 5.79999C8.96457 5.71402 9 5.60754 9 5.49997C9 5.21954 8.78055 5 8.50003 5Z" fill="#FFFE4E"/>
<path d="M8.50003 6H5.53105L5.99797 2.05902C5.99953 2.0495 5.99999 2.01004 5.99999 1.99997C5.99999 1.71954 5.78054 1.5 5.50002 1.5C5.34355 1.5 5.1935 1.57452 5.09206 1.71149L1.09998 7.70004C1.03552 7.78601 1 7.89249 1 7.99997C1 8.28049 1.21954 8.50003 1.49997 8.50003H3.972L3.5015 12.9485C3.5005 12.9575 3.50004 12.991 3.50004 13C3.50004 13.2805 3.71949 13.5 4.00001 13.5C4.15648 13.5 4.30653 13.4255 4.4055 13.292L8.90002 6.79999C8.96457 6.71402 9 6.60754 9 6.49997C9 6.21954 8.78055 6 8.50003 6Z" stroke="#EB395F" stroke-width="0.7"/>
</g>
<defs>
<clipPath id="clip0_3495_35126">
<rect width="10" height="14" fill="white"/>
</clipPath>
</defs>
</svg>
