<svg width="18" height="18" viewBox="0 0 18 18" fill="none" xmlns="http://www.w3.org/2000/svg">
<path d="M12.665 4.13935H10.5067V4.53177C10.5067 2.58145 8.92524 1 6.97492 1C5.02459 1 3.44314 2.58145 3.44314 4.53177V4.13935H1.08863C0.762921 4.13935 0.5 4.40227 0.5 4.72798V15.7157C0.5 16.0414 0.762921 16.3043 1.08863 16.3043H12.665C12.9907 16.3043 13.2536 16.0414 13.2536 15.7157V4.72798C13.2536 4.40227 12.9907 4.13935 12.665 4.13935ZM9.32943 4.13935H4.6204V4.53177C4.6204 3.2309 5.67405 2.17726 6.97492 2.17726C8.27579 2.17726 9.32943 3.2309 9.32943 4.53177V4.13935Z" fill="#FFCAE3"/>
<ellipse cx="13.0219" cy="12.1303" rx="4.86957" ry="4.86956" fill="#EB395F"/>
<path d="M13.0216 7.95605C10.7148 7.95605 8.84766 9.82521 8.84766 12.13C8.84766 14.4347 10.7168 16.3039 13.0216 16.3039C15.3263 16.3039 17.1955 14.4347 17.1955 12.13C17.1955 9.82521 15.3263 7.95605 13.0216 7.95605ZM15.1105 12.5121H13.4037V14.2209C13.4037 14.4308 13.2334 14.603 13.0216 14.603C12.8097 14.603 12.6414 14.4327 12.6414 14.2209V12.5141H10.9326C10.7208 12.5141 10.5505 12.3438 10.5505 12.1319C10.5505 11.9201 10.7208 11.7498 10.9326 11.7498H12.6414V10.043C12.6414 9.83115 12.8117 9.66086 13.0216 9.66086C13.2315 9.66086 13.4037 9.83115 13.4037 10.043V11.7498H15.1105C15.3224 11.7498 15.4927 11.9201 15.4927 12.1319C15.4927 12.3438 15.3224 12.5121 15.1105 12.5121Z" fill="white"/>
</svg>
